<?xml version="1.0" encoding="utf-8"?>
<!-- Generator: Adobe Illustrator 23.0.3, SVG Export Plug-In . SVG Version: 6.00 Build 0)  -->
<svg version="1.1" id="Capa_1" xmlns="http://www.w3.org/2000/svg" xmlns:xlink="http://www.w3.org/1999/xlink" x="0px" y="0px"
	 viewBox="0 0 17 17" style="enable-background:new 0 0 17 17;" xml:space="preserve">
<style type="text/css">
	.st0{fill:#FFFFFF;}
</style>
<path class="st0" d="M8.5,0.5c2.2,0,4.2,0.9,5.7,2.3c1.4,1.5,2.3,3.4,2.3,5.7s-0.9,4.2-2.3,5.7c-1.5,1.4-3.5,2.3-5.7,2.3
	s-4.2-0.9-5.7-2.3c-1.5-1.5-2.3-3.4-2.3-5.7c0-2.2,0.9-4.2,2.3-5.7C4.3,1.4,6.3,0.5,8.5,0.5L8.5,0.5z M12.6,8.1
	c0.2,0,0.4,0.2,0.4,0.4c0,0.2-0.2,0.4-0.4,0.4H8.5h0c-0.2,0-0.3-0.1-0.4-0.2l0,0l0,0l0,0l0,0v0l0,0l0,0l0,0l0,0l0,0v0l0,0l0,0l0,0
	l0,0l0,0v0l0,0l0,0l0,0v0l0,0l0,0l0,0v0l0,0v0v0l0,0l0,0v0l0,0v0l0,0v0l0,0v0l0,0v0l0,0v0l0,0V3.3c0-0.2,0.2-0.4,0.4-0.4
	c0.2,0,0.4,0.2,0.4,0.4v4.8H12.6z M13.5,3.5c-1.3-1.3-3.1-2.1-5-2.1s-3.8,0.8-5,2.1c-1.3,1.3-2.1,3.1-2.1,5s0.8,3.8,2.1,5
	c1.3,1.3,3.1,2.1,5,2.1s3.8-0.8,5-2.1s2.1-3.1,2.1-5C15.6,6.5,14.8,4.7,13.5,3.5L13.5,3.5z"/>
</svg>
