<?xml version="1.0" encoding="utf-8"?>
<!-- Generator: Adobe Illustrator 23.0.3, SVG Export Plug-In . SVG Version: 6.00 Build 0)  -->
<svg version="1.1" id="Layer_1" xmlns="http://www.w3.org/2000/svg" xmlns:xlink="http://www.w3.org/1999/xlink" x="0px" y="0px"
	 viewBox="0 0 34 40" style="enable-background:new 0 0 34 40;" xml:space="preserve">
<style type="text/css">
	.st0{filter:url(#Adobe_OpacityMaskFilter);}
	.st1{fill-rule:evenodd;clip-rule:evenodd;fill:#FFFFFF;}
	.st2{mask:url(#mask-2_18_);fill-rule:evenodd;clip-rule:evenodd;fill:#599CE9;}
	.st3{filter:url(#Adobe_OpacityMaskFilter_1_);}
	.st4{mask:url(#mask-2_17_);fill-rule:evenodd;clip-rule:evenodd;fill:#FFFFFF;}
	.st5{filter:url(#Adobe_OpacityMaskFilter_2_);}
	.st6{mask:url(#mask-2_16_);fill-rule:evenodd;clip-rule:evenodd;fill:#FFFFFF;}
	.st7{filter:url(#Adobe_OpacityMaskFilter_3_);}
	.st8{mask:url(#mask-2_15_);fill-rule:evenodd;clip-rule:evenodd;fill:#FFFFFF;}
	.st9{filter:url(#Adobe_OpacityMaskFilter_4_);}
	.st10{mask:url(#mask-2_14_);fill-rule:evenodd;clip-rule:evenodd;fill:#FFFFFF;}
	.st11{filter:url(#Adobe_OpacityMaskFilter_5_);}
	.st12{mask:url(#mask-2_13_);fill-rule:evenodd;clip-rule:evenodd;fill:#FFFFFF;}
	.st13{filter:url(#Adobe_OpacityMaskFilter_6_);}
	.st14{mask:url(#mask-2_12_);fill-rule:evenodd;clip-rule:evenodd;fill:#FFFFFF;}
	.st15{filter:url(#Adobe_OpacityMaskFilter_7_);}
	.st16{mask:url(#mask-2_11_);fill-rule:evenodd;clip-rule:evenodd;fill:#FFFFFF;}
	.st17{filter:url(#Adobe_OpacityMaskFilter_8_);}
	.st18{mask:url(#mask-2_10_);fill-rule:evenodd;clip-rule:evenodd;fill:#FFFFFF;}
</style>
<g>
	<defs>
		<filter id="Adobe_OpacityMaskFilter" filterUnits="userSpaceOnUse" x="14.78" y="0.31" width="4.45" height="4.46">
			<feColorMatrix  type="matrix" values="1 0 0 0 0  0 1 0 0 0  0 0 1 0 0  0 0 0 1 0"/>
		</filter>
	</defs>
	<mask maskUnits="userSpaceOnUse" x="14.78" y="0.31" width="4.45" height="4.46" id="mask-2_18_">
		<g class="st0">
			<polygon id="path-1_18_" class="st1" points="0.63,39.69 177.97,39.69 177.97,0.31 0.63,0.31 			"/>
		</g>
	</mask>
	<path id="Fill-12" class="st2" d="M19.23,2.54c0,1.23-1,2.23-2.23,2.23c-1.23,0-2.23-1-2.23-2.23s1-2.23,2.23-2.23
		C18.23,0.31,19.23,1.31,19.23,2.54"/>
	<defs>
		<filter id="Adobe_OpacityMaskFilter_1_" filterUnits="userSpaceOnUse" x="0.63" y="10.54" width="2.83" height="2.84">
			<feColorMatrix  type="matrix" values="1 0 0 0 0  0 1 0 0 0  0 0 1 0 0  0 0 0 1 0"/>
		</filter>
	</defs>
	<mask maskUnits="userSpaceOnUse" x="0.63" y="10.54" width="2.83" height="2.84" id="mask-2_17_">
		<g class="st3">
			<polygon id="path-1_17_" class="st1" points="0.63,39.69 177.97,39.69 177.97,0.31 0.63,0.31 			"/>
		</g>
	</mask>
	<path id="Fill-13" class="st4" d="M3.47,11.96c0,0.78-0.63,1.42-1.42,1.42s-1.42-0.64-1.42-1.42c0-0.78,0.63-1.42,1.42-1.42
		S3.47,11.18,3.47,11.96"/>
	<defs>
		<filter id="Adobe_OpacityMaskFilter_2_" filterUnits="userSpaceOnUse" x="30.53" y="10.54" width="2.83" height="2.84">
			<feColorMatrix  type="matrix" values="1 0 0 0 0  0 1 0 0 0  0 0 1 0 0  0 0 0 1 0"/>
		</filter>
	</defs>
	<mask maskUnits="userSpaceOnUse" x="30.53" y="10.54" width="2.83" height="2.84" id="mask-2_16_">
		<g class="st5">
			<polygon id="path-1_16_" class="st1" points="0.63,39.69 177.97,39.69 177.97,0.31 0.63,0.31 			"/>
		</g>
	</mask>
	<path id="Fill-14" class="st6" d="M33.37,11.96c0,0.78-0.63,1.42-1.42,1.42c-0.78,0-1.42-0.64-1.42-1.42
		c0-0.78,0.63-1.42,1.42-1.42C32.73,10.54,33.37,11.18,33.37,11.96"/>
	<defs>
		<filter id="Adobe_OpacityMaskFilter_3_" filterUnits="userSpaceOnUse" x="15.59" y="18.99" width="2.83" height="2.84">
			<feColorMatrix  type="matrix" values="1 0 0 0 0  0 1 0 0 0  0 0 1 0 0  0 0 0 1 0"/>
		</filter>
	</defs>
	<mask maskUnits="userSpaceOnUse" x="15.59" y="18.99" width="2.83" height="2.84" id="mask-2_15_">
		<g class="st7">
			<polygon id="path-1_15_" class="st1" points="0.63,39.69 177.97,39.69 177.97,0.31 0.63,0.31 			"/>
		</g>
	</mask>
	<path id="Fill-15" class="st8" d="M18.42,20.41c0,0.78-0.63,1.42-1.42,1.42c-0.78,0-1.42-0.64-1.42-1.42
		c0-0.78,0.63-1.42,1.42-1.42C17.79,18.99,18.42,19.62,18.42,20.41"/>
	<defs>
		<filter id="Adobe_OpacityMaskFilter_4_" filterUnits="userSpaceOnUse" x="0.63" y="27.43" width="2.83" height="2.84">
			<feColorMatrix  type="matrix" values="1 0 0 0 0  0 1 0 0 0  0 0 1 0 0  0 0 0 1 0"/>
		</filter>
	</defs>
	<mask maskUnits="userSpaceOnUse" x="0.63" y="27.43" width="2.83" height="2.84" id="mask-2_14_">
		<g class="st9">
			<polygon id="path-1_14_" class="st1" points="0.63,39.69 177.97,39.69 177.97,0.31 0.63,0.31 			"/>
		</g>
	</mask>
	<path id="Fill-16" class="st10" d="M3.47,28.85c0,0.78-0.63,1.42-1.42,1.42s-1.42-0.64-1.42-1.42c0-0.78,0.63-1.42,1.42-1.42
		S3.47,28.06,3.47,28.85"/>
	<defs>
		<filter id="Adobe_OpacityMaskFilter_5_" filterUnits="userSpaceOnUse" x="30.53" y="27.43" width="2.83" height="2.84">
			<feColorMatrix  type="matrix" values="1 0 0 0 0  0 1 0 0 0  0 0 1 0 0  0 0 0 1 0"/>
		</filter>
	</defs>
	<mask maskUnits="userSpaceOnUse" x="30.53" y="27.43" width="2.83" height="2.84" id="mask-2_13_">
		<g class="st11">
			<polygon id="path-1_13_" class="st1" points="0.63,39.69 177.97,39.69 177.97,0.31 0.63,0.31 			"/>
		</g>
	</mask>
	<path id="Fill-17" class="st12" d="M33.37,28.85c0,0.78-0.63,1.42-1.42,1.42c-0.78,0-1.42-0.64-1.42-1.42
		c0-0.78,0.63-1.42,1.42-1.42C32.73,27.43,33.37,28.06,33.37,28.85"/>
	<defs>
		<filter id="Adobe_OpacityMaskFilter_6_" filterUnits="userSpaceOnUse" x="7.88" y="14.66" width="2.83" height="2.84">
			<feColorMatrix  type="matrix" values="1 0 0 0 0  0 1 0 0 0  0 0 1 0 0  0 0 0 1 0"/>
		</filter>
	</defs>
	<mask maskUnits="userSpaceOnUse" x="7.88" y="14.66" width="2.83" height="2.84" id="mask-2_12_">
		<g class="st13">
			<polygon id="path-1_12_" class="st1" points="0.63,39.69 177.97,39.69 177.97,0.31 0.63,0.31 			"/>
		</g>
	</mask>
	<path id="Fill-18" class="st14" d="M10.72,16.08c0,0.78-0.63,1.42-1.42,1.42c-0.78,0-1.42-0.64-1.42-1.42
		c0-0.78,0.63-1.42,1.42-1.42C10.08,14.66,10.72,15.3,10.72,16.08"/>
	<defs>
		<filter id="Adobe_OpacityMaskFilter_7_" filterUnits="userSpaceOnUse" x="23.28" y="14.66" width="2.83" height="2.84">
			<feColorMatrix  type="matrix" values="1 0 0 0 0  0 1 0 0 0  0 0 1 0 0  0 0 0 1 0"/>
		</filter>
	</defs>
	<mask maskUnits="userSpaceOnUse" x="23.28" y="14.66" width="2.83" height="2.84" id="mask-2_11_">
		<g class="st15">
			<polygon id="path-1_11_" class="st1" points="0.63,39.69 177.97,39.69 177.97,0.31 0.63,0.31 			"/>
		</g>
	</mask>
	<path id="Fill-19" class="st16" d="M26.11,16.08c0,0.78-0.63,1.42-1.42,1.42c-0.78,0-1.42-0.64-1.42-1.42
		c0-0.78,0.63-1.42,1.42-1.42C25.47,14.66,26.11,15.3,26.11,16.08"/>
	<defs>
		<filter id="Adobe_OpacityMaskFilter_8_" filterUnits="userSpaceOnUse" x="15.58" y="36.85" width="2.83" height="2.84">
			<feColorMatrix  type="matrix" values="1 0 0 0 0  0 1 0 0 0  0 0 1 0 0  0 0 0 1 0"/>
		</filter>
	</defs>
	<mask maskUnits="userSpaceOnUse" x="15.58" y="36.85" width="2.83" height="2.84" id="mask-2_10_">
		<g class="st17">
			<polygon id="path-1_10_" class="st1" points="0.63,39.69 177.97,39.69 177.97,0.31 0.63,0.31 			"/>
		</g>
	</mask>
	<path id="Fill-20" class="st18" d="M18.42,38.27c0,0.78-0.63,1.42-1.42,1.42s-1.42-0.64-1.42-1.42c0-0.78,0.63-1.42,1.42-1.42
		S18.42,37.49,18.42,38.27"/>
</g>
</svg>
