<?xml version="1.0" encoding="utf-8"?>
<!-- Generator: Adobe Illustrator 23.0.6, SVG Export Plug-In . SVG Version: 6.00 Build 0)  -->
<svg version="1.1" id="Layer_1" xmlns="http://www.w3.org/2000/svg" xmlns:xlink="http://www.w3.org/1999/xlink" x="0px" y="0px"
	 viewBox="0 0 180 53.2" style="enable-background:new 0 0 180 53.2;" xml:space="preserve">
<style type="text/css">
	.st0{fill:#FFFFFF;}
	.st1{fill:#599CE9;}
	.st2{fill:#000B2D;}
</style>
<g>
	<g>
		<path class="st0" d="M54.2,26c0.9-0.4,1.8-1.4,1.8-2.8c0-2-1.4-3.2-3.5-3.2h-4.8v12.6h4.8c2.3,0,3.7-1.3,3.7-3.5
			C56.2,27.8,55.3,26.4,54.2,26z M48.6,25.7v-4.9h3.9c1.6,0,2.6,0.9,2.6,2.5c0,1.2-0.7,2.5-2.6,2.5L48.6,25.7L48.6,25.7z M52.6,31.7
			h-4v-5.2h4c1.9,0,2.8,1.4,2.8,2.6C55.3,30.7,54.3,31.7,52.6,31.7z"/>
		<rect x="63.5" y="19.9" class="st0" width="0.8" height="12.6"/>
		<polygon class="st0" points="71,20.8 75.1,20.8 75.1,32.5 76,32.5 76,20.8 80.2,20.8 80.2,19.9 71,19.9 		"/>
		<path class="st0" d="M90.8,25.5C89,25,87.5,24.6,87.5,23c0-1.4,1.3-2.5,3.1-2.5c1.5,0,2.6,0.5,3.4,1.6l0.1,0.1l0.7-0.6l-0.1-0.1
			c-0.9-1.2-2.4-1.8-4.1-1.8c-2,0-4,1.1-4,3.2c0,2.2,2,2.8,3.9,3.4c1.8,0.5,3.6,1,3.6,2.9c0,0.6-0.3,2.7-3.5,2.7
			c-2,0-3.2-1.1-3.7-1.8l-0.1-0.1l-0.7,0.6l0.1,0.1c1,1.3,2.6,2,4.4,2c4.1,0,4.3-2.9,4.3-3.5C95,26.8,92.8,26.1,90.8,25.5z"/>
		<polygon class="st0" points="101.2,20.8 105.3,20.8 105.3,32.5 106.2,32.5 106.2,20.8 110.4,20.8 110.4,19.9 101.2,19.9 		"/>
		<path class="st0" d="M122.1,19.7c-3.5,0-6,2.7-6,6.5s2.5,6.5,6,6.5c3.5,0,6-2.7,6-6.5S125.6,19.7,122.1,19.7z M127.2,26.2
			c0,3.4-2.1,5.7-5.1,5.7c-3,0-5.1-2.3-5.1-5.7s2-5.7,5.1-5.7S127.2,22.8,127.2,26.2z"/>
		<path class="st0" d="M144.8,30.2c-0.9,1.1-2.3,1.7-3.7,1.7c-3.1,0-5.4-2.4-5.4-5.7s2.3-5.7,5.4-5.7c1.5,0,2.8,0.6,3.7,1.7l0.1,0.1
			l0.7-0.6l-0.1-0.1c-1.2-1.3-2.6-2-4.4-2c-3.6,0-6.3,2.8-6.3,6.5s2.7,6.5,6.3,6.5c1.8,0,3.2-0.7,4.4-2l0.1-0.1l-0.7-0.6L144.8,30.2
			z"/>
		<polygon class="st0" points="160.5,19.9 159.3,19.9 153.1,26.9 153.1,19.9 152.2,19.9 152.2,32.5 153.1,32.5 153.1,28 154.4,26.5 
			159.8,32.5 161,32.5 155,26 		"/>
		<path class="st0" d="M171.3,25.5c-1.7-0.5-3.2-0.9-3.2-2.5c0-1.4,1.3-2.5,3.1-2.5c1.5,0,2.6,0.5,3.4,1.6l0.1,0.1l0.7-0.6l-0.1-0.1
			c-0.9-1.2-2.4-1.8-4.1-1.8c-2,0-4,1.1-4,3.2c0,2.2,2,2.8,3.9,3.4c1.8,0.5,3.6,1,3.6,2.9c0,0.6-0.3,2.7-3.5,2.7
			c-2,0-3.2-1.1-3.7-1.8l-0.1-0.1l-0.7,0.6l0.1,0.1c1,1.3,2.6,2,4.4,2c4.1,0,4.3-2.9,4.3-3.5C175.5,26.8,173.3,26.1,171.3,25.5z"/>
	</g>
	<g>
		<circle class="st1" cx="19.9" cy="10.2" r="2.1"/>
		<circle class="st0" cx="5.8" cy="19.1" r="1.3"/>
		<circle class="st0" cx="34" cy="19.1" r="1.3"/>
		<circle class="st0" cx="19.9" cy="27" r="1.3"/>
		<circle class="st0" cx="5.8" cy="34.9" r="1.3"/>
		<circle class="st0" cx="34" cy="34.9" r="1.3"/>
		<circle class="st0" cx="12.6" cy="22.9" r="1.3"/>
		<circle class="st0" cx="27.1" cy="22.9" r="1.3"/>
		<circle class="st0" cx="19.9" cy="43.8" r="1.3"/>
	</g>
</g>
</svg>
